<svg xmlns="http://www.w3.org/2000/svg" viewBox="0 0 1200 630" role="img" aria-labelledby="title desc">
  <title id="title">CrossFrame Skill Suite</title>
  <desc id="desc">给 AI 装上的中文结构思考系统。</desc>
  <rect width="1200" height="630" fill="#f7f3ea"/>
  <g stroke="#ded6c8" stroke-width="1">
    <path d="M0 105h1200M0 210h1200M0 315h1200M0 420h1200M0 525h1200"/>
    <path d="M150 0v630M300 0v630M450 0v630M600 0v630M750 0v630M900 0v630M1050 0v630"/>
  </g>
  <rect x="82" y="72" width="1036" height="486" rx="24" fill="#fffaf1" stroke="#ded6c8" stroke-width="2"/>
  <text x="128" y="162" fill="#2f9e8f" font-family="Segoe UI, Noto Sans SC, Microsoft YaHei, sans-serif" font-size="28" font-weight="800">CrossFrame Skill Suite</text>
  <text x="128" y="266" fill="#1f2328" font-family="Noto Serif SC, Songti SC, SimSun, serif" font-size="72" font-weight="700">给 AI 装上的中文结构思考系统</text>
  <text x="132" y="352" fill="#1f2328" font-family="Segoe UI, Noto Sans SC, Microsoft YaHei, sans-serif" font-size="38" font-weight="700">让 AI 在回答前先交账，在回答后继续追问。</text>
  <g font-family="Segoe UI, Noto Sans SC, Microsoft YaHei, sans-serif" font-size="24" font-weight="800">
    <rect x="132" y="430" width="150" height="58" rx="8" fill="#fffdf7" stroke="#ded6c8"/>
    <text x="158" y="467" fill="#5b6ee1">source_id</text>
    <rect x="315" y="430" width="138" height="58" rx="8" fill="#fffdf7" stroke="#ded6c8"/>
    <text x="342" y="467" fill="#2f9e8f">claim_id</text>
    <rect x="486" y="430" width="250" height="58" rx="8" fill="#fffdf7" stroke="#ded6c8"/>
    <text x="513" y="467" fill="#b7791f">concept contract</text>
    <rect x="770" y="430" width="116" height="58" rx="8" fill="#fffdf7" stroke="#ded6c8"/>
    <text x="796" y="467" fill="#b84a4a">review</text>
    <rect x="920" y="430" width="118" height="58" rx="8" fill="#fffdf7" stroke="#ded6c8"/>
    <text x="944" y="467" fill="#1f2328">inquiry</text>
  </g>
</svg>
